<?xml version="1.0" encoding="UTF-8"?>
<svg xmlns="http://www.w3.org/2000/svg" version="1.1" viewBox="0 0 88.13 88.13">
  <!-- Generator: Adobe Illustrator 30.2.1, SVG Export Plug-In . SVG Version: 2.1.1 Build 1)  -->
  <defs>
    <style>
      .st0 {
        fill: #807b5b;
      }

      .st1 {
        fill: #0f6e6f;
      }

      .st2 {
        fill: #4d8183;
      }

      .st3 {
        fill: #b1cbb8;
      }

      .st4 {
        fill: #d28e58;
      }

      .st5, .st6, .st7 {
        stroke-miterlimit: 10;
      }

      .st5, .st7 {
        stroke: #231f20;
        stroke-width: .25px;
      }

      .st5, .st8 {
        fill: none;
      }

      .st9 {
        fill: #69654b;
      }

      .st10 {
        fill: #75989a;
      }

      .st11 {
        fill: #105e5f;
      }

      .st6 {
        fill: #231f20;
        stroke: #0f6e6f;
        stroke-width: .15px;
      }

      .st12 {
        fill: #0b4c4d;
      }

      .st13 {
        fill: #093c3d;
      }

      .st14 {
        fill: #062d2e;
      }

      .st7 {
        fill: #a59772;
      }

      .st15 {
        fill: #3c6f84;
      }

      .st8 {
        stroke: #cbb943;
        stroke-linecap: round;
        stroke-linejoin: round;
      }
    </style>
  </defs>
  <g id="Layer_1">
    <path class="st4" d="M26.23,30.56c-1.32.64-2.59,1.57-3.88,2.31-.2.11-.04.49.05.56.51.42.71.15.92.36.11.11-.08.73.34.98.23.13.5.01.77-.12,2.13-1.06,4.13-2.18,6.33-3.06,1.72-.68,3.35-.86,5.13-.34l3.73,1.09c.85.25,1.21,1.44,1.87,2.06-.52.43-.96.44-1.24.99-.17.35-.16.87.29,1.01.03-.31.01-.7.26-.8.18-.08.36-.3.63-.21-.41.48-.69.86-.58,1.39l.63-.79c0,.07,0,.15,0,.22.71-.86,1.56-1.15,2.82-.61.09-.11.17-.23.27-.34.07-.28-.08-.54.11-.74.33.24.23.55.45.84.51-.44.34-.92.17-1.37.21-.09.38,0,.44,0,.05-.01,0-.31-.12-.46-.68-.45-1.42-.83-1.76-1.57,7.21-2.47,11.13-10.08,9.07-17.29,0,0,0,0,0,0-.28-.99-.2-2.1.37-2.9.53-.74,1.43-.87,2.19-1.17-.46-.65-1.48-.59-1.98-1.07-.87-.89-1.68-1.66-2.92-1.7-1.22-.04-2.35.33-3.23,1.3-1.89,2.08-1.36,4.21-3.04,5.74-.26.24-.56.46-.94.66-6.64,3.59-11.51,8.29-16.49,14.28l-.66.75Z"/>
    <path class="st14" d="M40.68.36c24.08-1.75,44.88,16.44,46.61,40.27,1.75,23.97-16.34,44.88-40.29,46.62C23.11,88.99,2.21,70.99.4,47.08-1.41,23.21,16.55,2.11,40.68.36Z"/>
  </g>
  <g id="Layer_2">
    <path class="st3" d="M16.65,27c-1.29.01-2.41.81-3.28,1.94,1.61.78,4.02.65,4.91-1.18l-.11-.36c-.46-.36-.96-.42-1.52-.4Z"/>
    <path class="st3" d="M17.63,25.14c-.93-1.04-4.4-.3-4.62,0,3.11,2.63,3.69.9,5.18.95l.14-.33c-.29-.16-.45-.34-.7-.62Z"/>
    <path class="st3" d="M12.02,20.01c.97,1.96,3.03,3.71,5.19,2.5l.17-.24c-.75-2.22-3.12-2.77-5.36-2.26Z"/>
    <path class="st3" d="M16.79,16.1c-.8,1.93-.51,4.67,1.64,5.43l.48-.14c1.18-2.11-.28-4.13-2.11-5.3Z"/>
    <path class="st3" d="M5.79,31.19c1.68,2.97,3.98,4.36,7.19,3.3l.35-.54c-1.17-3.2-4.42-3.58-7.54-2.76Z"/>
    <path class="st3" d="M3.83,37.42c1.64,2.29,3.55,3.43,6.18,2.49,0,0,0,0,0,0l.36-.53c-1.05-1.12-1.6-3.37-6.54-1.97Z"/>
    <path class="st3" d="M70.39,49.08c.46-2.32-.05-4.9-2.58-5.9h-.01s-.71.16-.71.16c-.65,2.85.61,4.36,3.29,5.74Z"/>
    <path class="st3" d="M72.76,43.11c.67,2.47,3.87,2.96,6.23,2.56-.98-2.35-3.49-4.71-6.2-3.49l-.32.36c.12.15.23.33.29.57Z"/>
    <path class="st3" d="M75.35,39.84s-.05.02-.08.04l.3.58s0,0,0,0c1.59,0,3.17,1.24,6.13-2.36-2.38-.94-5.17-.81-6.36,1.75Z"/>
    <path class="st3" d="M80.65,29.02c-5.05-1.16-5.8,1.76-6.04,2.35l.31.39c2.52.98,4.47-.69,5.73-2.74Z"/>
    <path class="st3" d="M64.8,14.86l.09.23s.08,0,.1,0l1.78.31c1.15.2,2.16-1.13,2.72-2.27-3.84-.75-3.8,1.25-4.7,1.74Z"/>
    <path class="st3" d="M67.25,19.97c2.6.36,4.17-1.65,5.04-3.95-2.64-.18-5.47.89-5.53,3.83l.43.16.06-.04Z"/>
    <path class="st3" d="M58.33,14.58c-1.75.26-2.42-2.75-1.97-4.02,1.62.7,3.06,2.63,1.97,4.02Z"/>
    <path class="st3" d="M73.67,35.89c1.04-.04,2.17-.22,3.28-.77-2.09-2.48-6.04-1.63-5.66-1.51-.02,0-.06-.04-.1-.06l-.38.23c.86,1.37,1.36,2.16,2.86,2.1Z"/>
    <path class="st3" d="M70.75,27.76c3.21.4,4.8-2.4,5.02-5.34-1.35.21-2.5.76-3.52,1.45-1.25.85-1.38,2.06-1.78,3.35-.03.09-.06.17-.09.26l.38.29s0,0,0-.01Z"/>
    <path class="st3" d="M65.9,21.96c1.58,1.48,3.29,1.02,5.03-.16-1.31-1.06-3.13-1.46-4.6-.5-.17.11-.33.21-.5.28l.06.38s.01,0,.02,0Z"/>
    <path class="st3" d="M65.84,19.16c.72-1.16.11-2.65-.9-3.46-1.16,1.03-1.32,2.95.05,4.06l.41.02c.15-.2.3-.4.44-.62Z"/>
    <path class="st3" d="M64.79,13.95c1.98-.93,2.39-2.88,1.88-5.03-1.8.83-3.42,2.78-2.31,4.85l.4.21.03-.04Z"/>
    <path class="st3" d="M17.34,43.75c-2.38.93-2.74,3.49-2.13,5.75,2-1.26,3.67-3,2.65-5.57,0,0,0,0,0,0l-.52-.19h0Z"/>
    <path class="st3" d="M7.57,47.27c5.89.37,6.03-3.26,6.31-3.5l-.36-.35c-3.06-.51-4.75,1.26-5.95,3.85Z"/>
  </g>
  <g id="Layer_6">
    <g>
      <path class="st7" d="M26.23,30.56c-1.32.64-2.59,1.57-3.88,2.31-.2.11-.04.49.05.56.51.42.71.15.92.36.11.11-.08.73.34.98.23.13.5.01.77-.12,2.13-1.06,4.13-2.18,6.33-3.06,1.72-.68,3.35-.86,5.13-.34l3.73,1.09c.85.25,1.21,1.44,1.87,2.06-.52.43-.96.44-1.24.99-.17.35-.16.87.29,1.01.03-.31.01-.7.26-.8.18-.08.36-.3.63-.21-.41.48-.69.86-.58,1.39l.63-.79c0,.07,0,.15,0,.22.71-.86,1.56-1.15,2.82-.61.09-.11.17-.23.27-.34.07-.28-.08-.54.11-.74.33.24.23.55.45.84.51-.44.34-.92.17-1.37.21-.09.38,0,.44,0,.05-.01,0-.31-.12-.46-.68-.45-1.42-.83-1.76-1.57,7.21-2.47,11.13-10.08,9.07-17.29,0,0,0,0,0,0-.28-.99-.2-2.1.37-2.9.53-.74,1.43-.87,2.19-1.17-.46-.65-1.48-.59-1.98-1.07-.87-.89-1.68-1.66-2.92-1.7-1.22-.04-2.35.33-3.23,1.3-1.89,2.08-1.36,4.21-3.04,5.74-.26.24-.56.46-.94.66-6.64,3.59-11.51,8.29-16.49,14.28l-.66.75Z"/>
      <path class="st6" d="M49.98,9.88c.37-.28.88-.18,1.1.21.13.23.12.61-.26.89-.22.17-.63.14-.87-.07-.32-.28-.39-.72.02-1.03Z"/>
      <path class="st0" d="M40.59,25.54c2.08-1.23,5.35-4.26,6.1-6.46.44-1.29.43-2.43-.67-3.43l-1.7-.77c-.26.24-.56.46-.94.66-6.64,3.59-11.51,8.29-16.49,14.28,4.75-.13,13.48-1.6,17.12-4.27,1.61-1.18,2.77-2.89,2.87-4.87-1.2,2.2-3.85,5.77-6.28,4.87Z"/>
      <path class="st9" d="M44.44,30.47c-3.59,1.56-7.22.07-7.17.29-.01-.05-.06-.07-.1-.15-.14-.28,2.26-.07,3.23-1.42.14-.2.22-.4.2-.53-.03-.21-.32-.36-.57-.28-1.46.46-4.52,1.19-5.76,1.38l-.87.13c-2.42.37-4.77.54-7.17.67-1.32.64-2.59,1.57-3.88,2.31-.2.11-.04.49.05.56.51.42.71.15.92.36.11.11-.08.73.34.98.23.13.5.01.77-.12,2.13-1.06,4.13-2.18,6.33-3.06,1.72-.68,3.35-.86,5.13-.34l3.73,1.09c.85.25,1.21,1.44,1.87,2.06-.52.43-.96.44-1.24.99-.17.35-.16.87.29,1.01.03-.31.01-.7.26-.8.18-.08.36-.3.63-.21-.41.48-.69.86-.58,1.39l.63-.79c0,.07,0,.15,0,.22.71-.86,1.56-1.15,2.82-.61.09-.11.17-.23.27-.34.07-.28-.08-.54.11-.74.33.24.23.55.45.84.51-.44.34-.92.17-1.37.21-.09.38,0,.44,0,.05-.01,0-.31-.12-.46-.68-.45-1.42-.83-1.76-1.57,7.21-2.47,11.13-10.08,9.07-17.29l-.9.93c1.42,6.11-2.01,12.44-7.57,14.87ZM42.49,33.92c-.49-.42-.85-.85-1.29-1.51,1.61-.74,2.54.93,2.52,1.09-.06.55-.18-.28-1.23.41Z"/>
      <path class="st4" d="M53.29,11.76c.53-.74,1.43-.87,2.19-1.17-.46-.65-1.48-.59-1.98-1.07-.87-.89-1.68-1.66-2.92-1.7-1.22-.04-2.35.33-3.23,1.3-1.89,2.08-1.36,4.21-3.04,5.74l1.7.77c-.07-.07-.13-.13-.21-.2,1.58-1.79.85-4.57,3.32-5.97,1.18-.67,2.72-.53,3.49.55l-.27.42c-.11.18.09.37.26.5-.86,1.14-.84,2.05-2.42,2.53-.13.04-.34-.1-.54,0-.49.21-.47,1.37.57,2.03.53.33,1.08.24,1.79.02,0,.03,0,.05.02.08l.9-.93s0,0,0,0c-.28-.99-.2-2.1.37-2.9Z"/>
      <path class="st4" d="M34.37,27.51c.07.02.14,0,.21,0,.09,0,.09.16.04.2-.04.03-.08.07-.18.24-.26-.13-.61-.18-.82.09-.02-.36-1.37.54-1.32,0,.01-.16.5-.02.41-.26-.08-.22,1.41-.31,1.66-.27Z"/>
      <path class="st4" d="M40.28,25.43c-.25.49-.78.11-1.07.4.27.18.62.21.98.09.15.09.15.18.14.24-.01.09-.18.04-.29.08l-.94.38c.44-.18-4.15,1.42-3.49.69l3.76-1.09c-.27-.16-.6-.29-.84-.23-.48.12-4.29,1.23-4.16,1.52.07.02.14,0,.21,0,.09,0,.09.16.04.2-.04.03-.08.07-.18.24-.26-.13-.61-.18-.82.09-.02-.36-1.37.54-1.32,0,.01-.16.5-.02.41-.26.15-.05-2.81.24-2.32.49l-.78-.22c2.05-.61,2.61-.39,4.78-1.09l5.34-1.72c.14-.38.64-.47,1-.65,1.51-.77,2.62-2.04,3.75-3.29.22-.16.27.08.15.29l-2.18,2.23c-.36.37-1.91,1.11-2.17,1.62Z"/>
      <path class="st4" d="M33.57,26.69c-1.77.41-.32-.04-1.73.26-.04-.37.07-.32.15-.35-.67.26,3.14-.53,3.94-.99,1.3-.75,4.43-1.47,6.14-3.56.14-.02.19-.08.21-.05.05.06.14.19.1.19-.03,0-1.1,1.01-1.08.99l-1.85,1.53c-.09.08-.43-.04-.52.16-.22.5-.66.3-.99.37-1.19.25-2.2.95-3.39,1.22l-1,.23Z"/>
      <path class="st4" d="M33.18,25.87c-1.06.15-1.96,1.09-2.65.65l1.77-.71c2.46-.98,4.92-1.77,7.13-3.18.76-.48,1.24-1.24,2.16-1.51-1.72,1.91-3.94,3.16-6.39,3.99-.02,0-1.65.71-2.03.76Z"/>
      <path class="st4" d="M32.81,25.12c-.24.13-.4.2-.67,0l5.56-3.04c.98-.54,1.69-1.24,2.77-1.67-2.05,2.03-4.95,3.28-7.65,4.72Z"/>
    </g>
  </g>
  <g id="Layer_4">
    <g>
      <path class="st5" d="M77.79,39.17c-1.01.22-1.76.6-2.44.66-.44.19-.9.33-1.37.44-2.03.21-3.99.03-5.93-.33l-5.11-1.13c-.31-.07-.61-.14-.92-.2l-.54-.12s.01,0,.02-.01c.01,0,.02,0,.04,0,0,0,0-.02,0-.03,1.98-1.18,3.47-2.22,5.06-3.66.52-.36,1.14-.55,1.64-1,.42-.18.85-.32,1.24-.4.78.33,1.59.72,2.43.9.91.34,1.95.61,1.57.45-.41-.18-.73-.24-1.06-.35l-.46-.22c-.23-.13-.47-.32-.76-.62-.03-.03-.08-.07-.12-.11.56-.27,1.17-.57,1.76-.9.74-.26,1.48-.54,1.92-.76.02,0,.16-.01.18-.03.82-.44,3.28-1.76,2.6-1.44-.83.39-2.09.9-2.91,1.05-.12.02-.17.09-.51.31,0,0-.02,0-.03.02-.08,0-.27.04-.33.16-.8.27-1.6.59-2.42.83-1.04.2-2.14.29-3.21.36.48-.76.84-1.53,1.17-2.28.06-.12.12-.23.18-.35.15-.18.23-.29.22-.28.44-.98.97-1.76,1.38-2.8.01-.13.01-.2,0-.24.57-.9,1.51-1.52,1.1-1.26-.97.61-1.25,1.13-1.81,1.65-.6,1.21-1.54,2.67-2.42,3.89-.33.46-.68.89-1.05,1.3-.79.8-1.64,1.56-2.24,2.08-2.63,2.02-5.79,3.18-9.24,4.15.31-.55.62-1.1.93-1.66.92-1.53,1.59-2.93,2.12-4.39.14-.38.26-.77.39-1.15.04-.12.08-.24.12-.36.1-.34.2-.68.29-1.03.32-1.2.61-2.48.91-3.94.72-1.71,2.1-3.12,3.78-3.87.22-.07.44-.15.66-.21.73-.2,1.51-.29,2.3-.38.8-.02,1.61-.03,1.24-.1-.8-.15-1.61-.15-2.33-.23-.17-.02-.34.05-.51.05-.02-.03-.02-.06,0-.1.39-.31.8-.7,1.18-1.07.27-.2.53-.37.71-.45.43-.53,1.56-1.73,1.47-1.74-.1,0-.45.45-.94.9,0,0,.02-.02.02-.03,0,0-.02.02-.03.04-.04.03-.08.07-.12.1-.31.23-1.03.65-1.12.67-.17.14-.28.2-.3.21-.19.07-.41.18-.48.38-.07.05-.18.1-.27.1-.07,0-.15,0-.22,0,.03-.14.06-.36.09-.59.05-.09.09-.18.11-.26.14-.5-.29-2.57-.26-2.05.03.56.25,1.48-.1,2.07-.9,1.97-3.04,2.67-4.74,4.14-.04-1.72-.21-3.08-.37-4.6-.3-2.74,4.22-3.88,4.97-4.25.07-.04.16-.09.26-.14.09-.04.19-.08.28-.13.85-.36,2.16-.78,1.69-.7-.21.04-.63.16-1.05.3h0c-.06.01-.23-.03-.28,0,0,.06-.13.12-.25.18-.1.03-.19.06-.27.09-.03,0-.06.02-.07.01-.04-.01-.11.03-.17.07-.04.01-.07.03-.1.04-.04,0-.07,0-.1,0-.18.02-.35.01-.49-.11.09-.16.19-.32.28-.49.07-.09.13-.17.15-.23.02-.06.05-.13.08-.22.11-.23.2-.46.26-.71.24-.67.51-1.41.47-1.45-.05-.02-.65,1.44-1.05,1.99,0,0,0,.01-.01.02-.05.07-.11.13-.15.16-.02.04-.05.06-.07.1-.57.6-1.23.99-1.94,1.39.1-.37.78-1.65-1.74,1.11-.07.06-.13.12-.18.2-.08.09-.16.18-.25.28,0,0,0,0,0,0-.2.11-.39.31-.5.5-.05,0-.1,0-.16,0l-.6-1.52-.16-.94c-.02-.12.04-.19-.05-.32-.2-.28-.2,0-.13.4l-.79-1.98c-.24.2.47,1.81.55,2.07,1.13,3.76,1.26,7.53.52,11.34-.39,2.02-1.03,3.96-1.86,5.8-.15.25-.25.45-.37.66-.14.23-1.59,2.58-1.6,2.61-.01.04-1.17,1.59-1.29,1.74l-1.03,1.26c-.16.19-.32.28-.46.44l-.78.86c-.39.44-.88.79-1.34,1.17l-1.71,1.43c-1.02.85-3.15,2.61-3.56,3.68l.63-.58c-.25.27-.51.54-.76.82-.06-.18-.1-.36-.16-.54l-.75-4.84c-.04-.26-.16-.77-.16-.84,0,0,0,0,0,0-.02-.42-.03-.83-.04-1.25.07-.45.17-.9.07-1.35.31-.35.54-1.06.3-1.35.09-.18.19-.35.32-.52-.24-.1-.46-.17-.68-.21-.06-.11-.12-.21-.22-.29-.36-.31-.85-.05-1.2.19-.23.16-.39.21-.56.56-.16.34-.43.61-.27.97-.43,3.18-.21,6.51-1.03,9.79-.75-1.08-1.78-1.79-2.43-2.86-.91-1.5-1.63-3.08-2.62-4.55-.94-1.4-1.7-2.59-2.96-3.7-.64-.57-1.61-1.54-2.32-1.89-.48-.24-.43.11-.89.25.27.26.5.49.72.7,1.25,1.61,2.44,3.32,3.51,5.06.21.46.41.92.58,1.4.13-.01.14.13,0,.09-.56-.3-1.13-.58-1.7-.85-.09-.04-.18-.09-.27-.13-.14-.06-.27-.13-.41-.19-.51-.23-1.04-.45-1.59-.64-1.72-.59-3.35-1.14-5.04-1.58,0,0-.23-.07-.57-.16l-2.47-.76-5.67-1.71c-.07-.07-.17-.09-.28-.09l-.46-.14c-.54-.16-1.69-.68-2.16-.91-.82-.01-2.23-.77-2.92-.96-.11-.03,2.58,1.42,2.57,1.5,3.77,2,9.5,3.92,11.13,4.61.02,0-1.29.42-2.98.84-.48.11-.96.21-1.45.34-.17.05-.35.08-.52.12-.91.19-1.82.34-2.64.42-.23.02-.46.04-.69.05,0,0-.02,0-.03,0-.36,0-.71,0-1.07-.03-.11-.02-.2-.04-.29-.06-.08-.05-.18-.07-.29-.07-1.08-.26-1.53-.39-1.89-.53-.12-.05-.26-.11-.4-.17-.31-.14-.7-.32-1.5-.63-1.77-.39-2.92-.95-3.19-.9-.06.01,2.86,1.43,2.82,1.42,1.75,1.17,4.65,2.04,6.76,2.09,0,.02,0,.04,0,.06-.04.06-.1.15,0,.21-.08.03-.16.05-.23.08-.1.03-.23.08-.39.13-.11.03-.22.06-.33.1-.65.24-1.35.4-2.03.73-.18.08-.32.14-.37.18-.59.51-3.36,1.76-2.17,1.44.35.09,5.64-2.54,6.98-2.65-1.28,1.49-2.63,5.09-2.02,4.31,1.17-2.68,3.04-4.23,4.95-5.06.45-.12.9-.26,1.37-.43.19-.07.38-.12.57-.18.39-.08.77-.13,1.14-.17,1.45-.12,2.74-.08,3.98.21.24.07.48.14.72.22.75.26,1.45.58,2.12.95.21.12.42.25.63.39,2.3,1.58,4.1,3.68,5.42,6.12.46.85.84,1.72,1.16,2.6.02.07.05.13.07.2.05.14.09.28.13.42.17.55.33,1.11.46,1.67.2.86.36,1.72.49,2.59.02.14.04.27.05.41.04.27.06.54.09.81.09.88.15,1.76.18,2.66.15,4.01-.23,9.39-1.96,13.66-.9,2.15-2.16,4.04-3.91,5.18-.75.49-1.51.78-2.35.95-.41.03-.81.04-1.22.08-1.71.16-3.36.34-5.08.65l-3.87.7c.95.63,1.92,1.18,2.91,1.69,1.5.84,3.02,1.55,4.58,2.14.19.07.9.29,1.73.53,1.26.43,2.36.73,3.28.95.15.04.24.07.24.07l.53.12.39.06c1.17.23,1.84.27,1.84.27.12,0,5.4.57,5.66.59.59-.02,4.32-.16,4.32-.16,2.14-.12,4.31-.47,6.47-.99,0,0,0,0,0,.01,3.66-.8,7.25-2.06,10.59-3.76.26-.12.53-.24.8-.36-.01,0-.02,0-.04-.01,0,0,.02,0,.03-.01-.45-.16-.79-.24-.84-.27-.06-.04-1.24-.47-1.3-.48-.07-.02-.49-.12-.49-.12-.06,0-.49-.09-.49-.09-.06,0-4.51-1.05-4.51-1.05-.1-.02-3.4-.57-3.71-.66-.14-.04-.32-.09-.44-.13-3.39-1.24-5.41-5.17-6.38-8.55-.53-1.82-.88-3.67-1.12-5.52-.17-1.57-.25-3.15-.23-4.73.09-2.02.23-3.89.54-5.92.09-.49.17-.99.27-1.48.22-1.02.53-2,.9-2.94.14-.33.28-.66.43-.98.06-.12.11-.24.17-.36,1.58-3.15,3.95-5.71,7.18-7.36,2.13-1.08,4.45-1.44,6.79-1.3.27.02.52.06.76.11.06.01.12.02.18.03.83.19,1.53.53,2.32.81.01,0,.02,0,.03.01.93.47,1.76,1.11,2.34,1.94,0,0,0,0,0,0,.53.45,1.12,1.63,1.49,2.18.78,1.19-.49-1.28-.78-2.36-.11-.18-.31-.45-.55-.74-.29-.52-.63-.98-1-1.31-.04.03,2.12.18,2.83.23.87.15,1.73.36,2.57.66.36.13.6.3.81.52.72.22,3.03,1.43,2.47,1.07-1.22-.78-2.14-1.43-2.14-1.43-.5-.26-.95-.29-1.38-.84,1.43.25,2.82-.56,4.16-.88.4-.52,2.84-1.41,2.22-1.28ZM52.95,38.5s.08-.1.13-.14c-.04.05-.08.1-.13.14ZM56.65,32.95c.05-.12.11-.23.16-.35-.05.12-.11.23-.16.35ZM51.49,40.04s-.04.04-.06.06c.02-.02.04-.04.06-.06Z"/>
      <path class="st5" d="M17.21,22.51s0,0,.01,0c2.75,1.41,2.15,1.47,3.29,4.18l-1.9-.79c-.11-.05-.2-.09-.29-.14,0,0-.89.06-2.28-.17-1.48-.12,2.15.49,2.15.49.6.02,1.34.31,2.47,1.29-.86.04-1.31.07-2.18.04,0,0-.3-.01-.31-.02,0,0-.63.09-1.46.39-1.05.38.61-.09,1.57-.03.02,0,.13-.03.38-.06,3.53-.04,3.21,1.88,5.34,3.37.32.05.72-.28.97-.53-2.99-2.47-6.05-8.46-6.07-9.15-.38-.37-.51-1.21-.97-2.43-.51-1.13.43,1.5.49,2.56.22.18.54,1.04.67,1.64-.71-.22-1.12-.62-1.71-.89,0,0,0,0,0-.01,0,0-3.12-1.25-2.16-.75,1.12.55,1.99.99,1.99.99Z"/>
    </g>
  </g>
  <g id="Layer_3">
    <path class="st1" d="M77.79,39.17c-1.01.22-1.76.6-2.44.66-1.78.75-3.88.87-5.73.46l-8.15-1.8c2.08-1.23,3.62-2.31,5.28-3.84.81-.75,3.47-1.8,3.91-1.1.05.08.07.17.14.22.6.47,3.23,1.2,2.67.96-.86-.37-1.36-.23-2.28-1.19-.08-.08-.21-.17-.29-.32.83-.32,2.96-.99,3.85-1.44.02,0,.16-.01.18-.03.82-.44,3.28-1.76,2.6-1.44-.83.39-2.09.9-2.91,1.05-.12.02-.17.09-.51.31-1.7,1.05-3.97,1.23-6.1,1.37,1.12-1.78,1.82-3.4,2.74-5.28.35-1.24,1.94-2.27,1.43-1.95-.97.61-1.25,1.13-1.81,1.65-.6,1.21-1.54,2.67-2.42,3.89-3.12,4.33-7.57,6.15-12.68,7.57,3-4.41,3.87-7.49,4.9-12.56.98-2.33,3.17-4.12,5.71-4.41.74-.08,2.83-.05,2.27-.16-.8-.15-1.61-.15-2.33-.23-.26-.03-.48.13-.76,0,0,0,1.52-1.28,2.13-1.57.43-.53,1.56-1.73,1.47-1.74-.16-.01-.9,1.1-1.91,1.58,0,0,0,.02,0,.03-.63.45-1.17.85-1.82,1.15-.01-.52.37-.9.47-1.25.14-.5-.29-2.57-.26-2.05.03.56.25,1.48-.1,2.07-.9,1.97-3.04,2.67-4.74,4.14-.04-1.72-.21-3.08-.37-4.6-.3-2.74,4.22-3.88,4.97-4.25.57-.36,2.83-1.07,2.23-.96-.53.09-2.33.73-2.33.73-.21.12-.48.15-.86.04,0,0,.72-.62.82-.92.18-.51.86-2.31.81-2.37-.05-.02-.85,1.9-1.21,2.17-.45.7-1.04,1.19-1.8,1.53-.13.12-.19.08-.22.04-.1-.11,1.35-2.5-2.75,2.17l-1.79-4.52c-.24.2.47,1.81.55,2.07,1.13,3.76,1.26,7.53.52,11.34-1.17,6-4.31,11.32-9.13,15.18-1.82,1.46-3.46,2.93-5,4.7-.94-2.95-1.15-5.78-1.1-8.69.01-.76.25-1.41.68-2-1.25-.54-2.1-.25-2.82.61,0,.15-.01.29-.02.43l.37.1c.19.19.33.41.62.54l.03,8.02.02,42.34c.59-.02,4.32-.16,4.32-.16,6.04-.34,12.31-2.47,17.85-5.1-3.46-1.1-7.51-2.03-11.1-2.61-3.81-.61-6.35-5.35-7.24-8.91-1.42-5.72-1.61-11.74-.36-17.49.96-4.42,3.38-8.18,7.02-10.7,2.27-1.57,4.84-2.43,7.64-2.32,2.38.09,5.08,1.01,6.46,2.98,0,0,0,0,0,0,.53.45,1.12,1.63,1.49,2.18.78,1.19-.49-1.28-.78-2.36-.34-.58-1.72-2.07-1.72-2.07,1.92,0,3.79.29,5.57.92.36.13.6.3.81.52.72.22,3.03,1.43,2.47,1.07-1.22-.78-2.14-1.43-2.14-1.43-.5-.26-.95-.29-1.38-.84,1.43.25,2.82-.56,4.16-.88.4-.52,2.84-1.41,2.22-1.28Z"/>
    <path class="st2" d="M18.9,21.39c-.38-.37-.51-1.21-.97-2.43-.51-1.13.43,1.5.49,2.56.22.18.54,1.04.67,1.64-.71-.22-1.12-.62-1.71-.89,0,0,0,0,0-.01,0,0-3.12-1.25-2.16-.75,1.12.55,1.99.99,1.99.99,0,0,0,0,.01,0,2.75,1.41,2.15,1.47,3.29,4.18l-1.9-.79c-.11-.05-.2-.09-.29-.14,0,0-.89.06-2.28-.17-1.48-.12,2.15.49,2.15.49.6.02,1.34.31,2.47,1.29-.86.04-1.31.07-2.18.04,0,0-.3-.01-.31-.02,0,0-.63.09-1.46.39-1.05.38.61-.09,1.57-.03.02,0,.13-.03.38-.06,3.53-.04,3.21,1.88,5.34,3.37.32.05.72-.28.97-.53-2.99-2.47-6.05-8.46-6.07-9.15Z"/>
    <path class="st2" d="M41.4,36.63l.43.12c.19.19.33.41.62.54l.03,8.02s2.4,34.95-5.64,41.75c0,0-2.58-.18-6.57-1.57-3.14-1.09-6.12-2.39-8.92-4.26l3.87-.7c1.72-.31,3.36-.49,5.08-.65.74-.07,1.48-.02,2.21-.25,1.06-.33,1.95-.95,2.7-1.75,3.95-4.21,4.73-12.36,4.52-17.87-.15-4.03-.73-7.83-2.65-11.36-1.32-2.45-3.12-4.55-5.42-6.12s-4.61-2.01-7.44-1.77-6.21,1.67-8.03,5.83c-.61.77.74-2.82,2.02-4.31-1.34.1-6.63,2.74-6.98,2.65-1.2.31,1.58-.93,2.17-1.44.29-.25,3.24-1.17,3.35-1.22-.14-.1.09-.27.01-.27-2.11-.05-5-.92-6.76-2.09.04,0-2.89-1.41-2.82-1.42.27-.05,1.42.51,3.19.9,2.16.83,1.36.74,3.94,1.36,2.18.74,9.84-1.63,9.8-1.64-1.63-.69-7.37-2.61-11.13-4.61,0-.08-2.69-1.53-2.57-1.5.69.19,2.1.94,2.92.96.48.22,1.63.74,2.16.91l6.4,1.94,7.33,2.27c1.68.52,3.21,1.23,4.72,2.04.14.04.13-.11,0-.09-.58-1.62-1.41-3.17-2.49-4.56-.83-1.07-1.29-1.63-2.31-2.59.46-.14.41-.49.89-.25.71.35,1.68,1.32,2.32,1.89,1.26,1.12,2.02,2.31,2.96,3.7.99,1.47,1.71,3.05,2.62,4.55.65,1.07,1.68,1.78,2.43,2.86.83-3.34.59-6.73,1.05-9.97Z"/>
    <path class="st15" d="M48.06,79.42c.92.39-2.25-.26-2.24-.2.58-.86,1.56-.11,2.24.2Z"/>
    <path class="st15" d="M40.05,79.5c-.12.33-.46.07-.26-.09.57-.38,1.85-.98,2.1-.18l-1.84.26Z"/>
    <path class="st15" d="M67.98,40.86c-.27.09-.62.31-.91.09.41-.25.76-.24,1.18-.3,0,.23-.15.21-.27.21Z"/>
    <path class="st1" d="M15.8,42.57c-.01.06.03.11.1.1-.82.19-1.57.71-2.49.82.79-.47,1.62-.62,2.4-.91Z"/>
    <path class="st1" d="M59,16.36c-.18-.07-.76-2.45-.29-1.79.09.12.03.19.05.32l.25,1.47Z"/>
    <path class="st2" d="M35.12,38.98c.06.09.07.26.19.29-.03.14.17.25.18.39,0,.06.1.15.1.18.08.14,1.49,3.02,2.02,3.66l1.61,1.95c.43.52.77,1.07,1.03,1.66-.01.14.11.14.1,0l1.52-9.71c.03-.22.05-.35.06-.57l.64.39-.05,25.8-.02,1.77s-.11.01-.1.05c.02.06-.03.1-.04.16-.79,4.42-1.62,8.74-3.96,12.67s-9.52,7.36-9.57,7.38c-2.47-.93-4.84-2.12-7.15-3.72,3.06-.67,6.07-1.04,9.16-1.41,1.12-.14,2.08-.44,3.03-1.06,4.26-2.78,5.63-9.98,5.9-14.54.69-2.45.97-5.09.85-7.77-.27-5.85-2.99-11.79-8-14.99-1.67-1.07-3.48-1.6-5.47-1.62-2.38-.02-4.65.3-6.98.82s-4.41.7-6.69.42c-.12-.01-.28.04-.29.11-.82-.3-1.64-.65-2.34-1.2l1.36.38c.2.06.34.1.49.05.02.21.33.05.48.1-.01.05.02.1.05.1h.15c.11,0,.27.04.38.03.21.13.53.06.78.08,1.71.16,3.42-.11,5.15-.55,1.58-.41,3.09-.73,4.65-.91.08,0,.17.04.32-.04-.11-.06-.21-.11-.31-.15-3.76-1.5-7.53-3.08-11.17-4.81.8.04,1.57.48,2.52.62.04,0,.07.03.11.02.12.13.34.14.5.19.06.02.12.07.18.01-.04.08.06.09.11.08.07,0,.12.07.18.01-.04.09.06.07.11.08,0,0,8.01,2.32,8.06,2.33,1.68.44,3.32.99,5.04,1.58,1.56.54,2.96,1.24,4.28,2.11-.02.07.05.12.14.11.05,0,.2.02.11-.1-.05-.06-.1-.11-.15-.12-1.36-2.45-3.03-4.89-4.79-7.12-.13-.17.18-.34.28-.3,1.72.67,5.07,4.8,5.27,5.11Z"/>
    <path class="st12" d="M55.65,38.95l3.56-1.21s.45-.17.49-.19c.05-.02.68-.31.97-.39.05-.01.16-.1.19-.1.05,0,.16-.07.2-.09.05-.02,1.51-.83,2.23-1.17.05-.03.59-.39.59-.39.05-.02,3.45-2.84,4.67-4.65l2.41-3.57c.02.07.17-.44.12.14-.41,1.04-.95,1.82-1.38,2.8.07-.06-2.2,2.71-3.45,3.96-2.63,2.61-5.85,4.13-9.36,5.31-2.36.79-4.46,1.97-6.29,3.68-.86.8-1.61,1.55-2.29,2.5-2.48,3.49-3.7,7.66-3.54,11.97.01.3.51-.4.44,1.27-.05,1.18-.14,2.38-.08,2.96.06,3.1.52,6.21,1.4,9.25.98,3.38,2.99,7.31,6.38,8.55.12.04.29.09.44.13.31.08,3.61.63,3.71.66,0,0,4.44,1.05,4.51,1.05,0,0,.43.08.49.09,0,0,.42.09.49.12.06.02,1.24.44,1.3.48.05.03.4.11.84.27-3.55,1.92-7.43,3.29-11.37,4.15,0-.1-.06-.13-.19-.16-4.12-1.05-6.81-6.51-7.86-10.27-.71-2.56-1.32-5.08-1.33-7.8l-.1-20.94c-.02,6.7-.14,13.35-.14,19.9l-.04-9.03v-7.87s.01-9.23.01-9.23c0-.36-.24-.77,0-1.05,0,.06.12.57.16.84l.84,5.46c-.03.13.1.12.11,0,.06-.11.15-.18.2-.3l2.69-2.51c1.65-1.53,3.35-2.81,4.89-4.45,1.96-2.09,5-7.75,5.02-7.8,1.48-3.7,1.84-7.03,1.93-10.97.14.07.13.36.15.56.44,6.6-2.16,13.14-6.08,18.34-.25.34-.52.59-.66,1.02.79-.32,1.44-.69,2.21-.92.23-.07.47-.38.53-.41Z"/>
    <path class="st13" d="M69.56,30.15c-.45,1-.87,2.03-1.53,3.05l1.39-.1c-.06.09.08.24-.07.29-.31.07-.8.12-1.08.39-.56.53-1.3.69-1.86,1.15-.8.66-1.47,1.36-2.39,1.87s-1.75,1.04-2.54,1.63c-.13-.03-.13.12,0,.09,4.66.95,9.08,2.55,13.97,1.55.17-.03-2.43,1.12-4.17,1.26-.13.01-.27-.03-.39.05.16.1.29.16.4.15.83.45-.36.03-1.97-.15,0,0-3.11-.21-3.06-.24.9.78,1.59,2.31,1.89,3.67-.76-1.43-1.83-2.86-3.42-3.41-1.08-.37-1.97-.87-3.26-.95-2.34-.14-4.67.22-6.79,1.3-4.35,2.22-7.14,6.09-8.55,10.82-.7,3.37-.87,6.05-1,9.24,0,.11-.17.25-.23.5-.03-1.14-.05-2.29,0-3.47.07-1.67-.3-.98-.31-1.29-.16-4.31,1.06-8.48,3.54-11.97.68-.95,1.43-1.7,2.29-2.5,1.83-1.71,3.92-2.89,6.29-3.68,3.51-1.18,6.73-2.69,9.36-5.31,1.25-1.24,2.35-2.52,3.22-4.02.04-.06.35.03.27.09Z"/>
    <g>
      <path class="st11" d="M42.5,87.65c-.27-.02-5.54-.58-5.66-.59l-2.23-.33-.53-.12s-4.7-1.33-5.25-1.54c0-.02,7.29-3.56,9.57-7.38s3.18-8.25,3.96-12.67c.01-.06.07-.1.04-.16-.01-.04.06-.06.1-.05l.02.41-.02,22.44Z"/>
      <path class="st11" d="M53.18,86.51c-3.14.69-6.38,1.07-9.62,1.02v-20.29c0-6.55.11-13.2.13-19.9l.1,20.94c.01,2.72.61,5.24,1.33,7.8,1.05,3.76,3.74,9.22,7.86,10.27.13.03.19.06.19.16Z"/>
      <path class="st11" d="M43.25,37.06c.05.78.14,1.57.31,2.31v.68c-.25.28-.03.69-.03,1.06v9.23s-.01,7.87-.01,7.87l.04,9.03v20.29c-.32,0-.64.04-.97.01l-.06-22.32-.02-.41.02-1.77.05-25.8c.02-.3.51-.12.67-.18Z"/>
    </g>
    <path class="st10" d="M39.77,64.32c.21-3.59-.04-7.2-.86-10.76-1.26-5.45-4.51-10.46-9.99-12.36-2.11-.73-4.34-.84-6.41-.09-1.1.4-2.09.65-3.2.81-.59.33-1.03,1.12-1.39,1.68-.04.19-.04.14-.14.05-.06-.06-.03-.07.05-.13.09-.42.13-.89.38-1.23.06,0,.12-.07.16-.1.08-.05.06-.18,0-.18-.09.12-.26.05-.25.17l-2.22.5c-.06.01-.11-.03-.1-.1.31-.12.64-.17.95-.31.34-.15.75-.14,1.09-.33-.39-.08-.75.09-1.08.06-1.22-.08-2.43-.27-3.58-.69,0-.08.17-.13.29-.11,2.28.28,4.45.08,6.69-.42s4.6-.83,6.98-.82c2,.01,3.81.55,5.47,1.62,5.01,3.2,7.72,9.14,8,14.99.12,2.68-.16,5.32-.85,7.77Z"/>
    <path class="st1" d="M59.78,19.28c.26,1.6.41,3.21.39,4.83,0,.07-.02.16,0,.26s.11-.02.15-.06c.05-.05.12-.14.05-.19.02,0,.05,0,.07,0,.17-.04.32-.23.4-.38.04,0,.08-.02.1-.05.02-.05.04-.11,0-.15.25-.18.45-.5.76-.58.06-.01.15-.01.11-.1.18-.03.27-.23.47-.21.1.01.33-.09.3-.2.33-.03,1.57-.52,2.02-.16-1.24.34-2.48.83-3.34,1.87-.67.81-1.23,1.83-1.37,2.89-.35,2.61-1,5.05-2.13,7.47-.73,1.56-1.55,2.94-2.35,4.37-.1.18-.2.38-.42.44-.77.23-1.43.6-2.21.92.15-.42.41-.68.66-1.02,3.92-5.21,6.52-11.74,6.08-18.34-.01-.2,0-.49-.15-.56,0-.42.07-.97,0-1.38.03-.07.08-.15.19-.17,0,.21,0,.49.2.49Z"/>
    <path class="st1" d="M64.34,14.7c-.09.07-.22.16-.29.27.62-.15.43.25.59-.01.05-.08.22-.01.2-.15.04,0,.09,0,.14,0,.05,0,.17-.13.24-.11.04.01.57-.15.59-.28.05-.03.22.02.28,0l-.08.1c-1.56,1.01-4,1.04-5.76,3.17-.4.49-.57,1-.45,1.6-.2,0-.2-.28-.2-.49-.12.02-.16.1-.19.17l-.29-2.21c-.01-.06.03-.11.1-.1.18.18.07.48.23.69.09.12-.02.28.17.43.13-.15.02-.32.08-.43.19-.12.38-.3.5-.5.1-.05.15-.09.19-.19.16-.08.31-.23.39-.39.11-.05.18-.12.28-.18.05-.03.14-.03.1-.11,1.58-1.05,3.14-1.41,4.05-3.48-.04.85-.46,1.53-.85,2.22Z"/>
    <path class="st1" d="M65.31,21.53c-.12.1-.32.13-.48.33.23.02.47-.16.69-.17.39-.01,2.41.1,2.41.1l-.58.07c-.93.1-1.88.19-2.74.43-.45-.37-1.69.13-2.02.16-.12-.41,1.94-.52,2.52-2.77.08.04.12-.05.08-.11-.03-.04,0-.06,0-.1.07.02.12-.03.11-.1-.14-.16.04-.3,0-.49l.05-.16c.06.48-.07,1.47-.16,1.9-.02.09-.2.22-.03.28.1-.07.23-.19.25-.27.09,0,.2-.04.27-.1.16-.12.4-.19.48-.38.02,0,.13-.07.3-.21.12-.02,1.27-.71,1.27-.81,0,0-1.32,1.49-2.44,2.4Z"/>
    <path class="st1" d="M44.85,46.06c.41-1.07,2.54-2.83,3.56-3.68l1.71-1.43c.45-.38.94-.74,1.34-1.17l.78-.86c.15-.16.31-.25.46-.44l1.03-1.26c.12-.15,1.28-1.7,1.29-1.74,0-.02,1.46-2.38,1.6-2.61.14-.24.23-.45.45-.77-1.03,2.56-2.67,4.92-4.63,7.01-1.54,1.64-3.24,2.92-4.89,4.45l-2.69,2.51Z"/>
    <path class="st1" d="M41.93,36.77c-.26-.54-.18-1.09.28-1.48.35-.24.84-.5,1.2-.19.27.23.35.58.39.91.04.4-.25.8-.54,1.05-.17.06-.66-.12-.67.18"/>
    <path class="st1" d="M73.75,31.84c.09-.17.49-.19.35-.13-.89.74-2.22,1.32-3.25,1.83-.12-.02-.12.1,0,.11l1.57.74c-1.05-.1-2.05-.63-3.02-1.03.15-.05,0-.2.07-.29l.98-.13c.06,0,.16.01.12-.08,1.09-.23,2.13-.67,3.18-1.02Z"/>
    <path class="st1" d="M43.57,39.37c-.17-.75-.26-1.54-.31-2.31.29-.26.58-.66.54-1.05.52.11.27,1.05-.11,1.47.14.64-.12,1.26-.12,1.9Z"/>
    <path class="st1" d="M12.7,40.53c-.16.05-.3,0-.49-.05l-1.36-.38-.58-.45c-.12-.09-.12-.18,0-.28.05-.04,2.42.98,2.39.96.05.03.04.12.05.2Z"/>
    <path class="st1" d="M42.21,35.29c-.45.39-.54.94-.28,1.48,0,.22-.02.43-.05.65-.3.08-.29-.28-.4-.43-.35-.45-.02-.75.17-1.14.16-.35.32-.4.56-.56Z"/>
    <path class="st1" d="M16.75,42.26c0-.09.02-.18.01-.27.33.02.69-.14,1.08-.06-.34.19-.75.18-1.09.33Z"/>
    <path class="st1" d="M65.52,21.7c-.22,0-.45.19-.69.17.15-.2.35-.23.48-.33-.04.06,0,.13.05.15.05.03.13.02.16.01Z"/>
    <path class="st1" d="M64.83,14.81c.02.13-.15.06-.2.15-.16.26.03-.14-.59.01.08-.11.21-.2.29-.27.14.12.31.13.49.11Z"/>
    <path class="st1" d="M59.67,17.35c-.06.11.06.28-.08.43-.19-.15-.08-.31-.17-.43.08.01.16,0,.25,0Z"/>
    <path class="st1" d="M14.54,40.84c-.24-.02-.57.05-.78-.08.24,0,.62-.15.78.08Z"/>
    <path class="st1" d="M60.85,23.74c-.08.15-.23.34-.4.38,0-.2.21-.4.4-.38Z"/>
    <path class="st1" d="M16.29,35.2c-.16-.05-.38-.06-.5-.19.2-.03.46-.04.5.19Z"/>
    <path class="st1" d="M71.33,41.31c0,.07,0,.13,0,.2-.11,0-.24-.05-.4-.15.12-.08.26-.04.39-.05Z"/>
    <path class="st1" d="M65.42,20.64c-.02.08-.15.2-.25.27-.17-.06.01-.19.03-.28.07.01.15,0,.22,0Z"/>
    <path class="st1" d="M59.2,16.65c-.06-.01-.11.03-.1.1-.14-.05-.07-.25-.1-.39.13.05.11.2.19.29Z"/>
    <path class="st1" d="M13.18,40.63c-.15-.05-.46.11-.48-.1.13-.04.4-.04.48.1Z"/>
    <path class="st1" d="M18.22,42.28c.03-.07-.03-.11-.09-.11,0-.12.16-.05.25-.17.06,0,.08.13,0,.18-.04.03-.1.1-.16.1Z"/>
    <path class="st1" d="M60.37,24.12c.07.05,0,.14-.05.19-.04.04-.12.16-.15.06s0-.19,0-.26c.07-.05.13.03.21,0Z"/>
    <path class="st1" d="M24.33,39.37c-.04-.06-.05-.14,0-.19.1.04.2.09.31.15-.14.09-.23.03-.32.04Z"/>
    <path class="st1" d="M63.71,82.08"/>
    <path class="st1" d="M34.24,41.4c.08.03.12-.04.1-.1.04,0,.1.06.15.12.09.11-.06.09-.11.1-.1.01-.17-.04-.14-.11Z"/>
    <path class="st1" d="M70.45,32.95c-.04-.1.07-.07.12-.08.04.1-.06.08-.12.08Z"/>
    <path class="st1" d="M70.85,33.65c-.12,0-.12-.13,0-.11,0,.03,0,.07,0,.11Z"/>
    <path class="st1" d="M59.67,17.35c.11-.19.3-.4.5-.5-.11.2-.3.38-.5.5Z"/>
    <path class="st1" d="M64.01,82.1"/>
    <path class="st1" d="M57.27,31.7c-.04.13-.07.33-.21.39"/>
    <path class="st1" d="M60.36,16.65c.06-.16.24-.33.39-.39-.08.16-.23.32-.39.39Z"/>
    <path class="st1" d="M61.04,16.08c-.04-.09.06-.08.1-.11.04.09-.06.09-.1.11Z"/>
    <path class="st1" d="M65.7,20.54c.07-.2.29-.31.48-.38-.09.19-.32.26-.48.38Z"/>
    <path class="st1" d="M61.53,38.49c-.12.03-.13-.11,0-.09-.02.03-.02.06,0,.09Z"/>
    <path class="st1" d="M65.2,19.47c.01-.06.04-.11.11-.1.01.07-.04.11-.11.1Z"/>
    <path class="st1" d="M76.48,39.76c-.12.08-.25.11-.39.11.29-.21.64-.32.96-.48-.16.25-.41.25-.57.37Z"/>
    <path class="st1" d="M35.6,39.76c-.07.02-.1-.04-.1-.1.07-.02.12.02.1.1Z"/>
    <path class="st1" d="M70.92,27.17c-.04.05-.07.07-.09,0,0-.15.13-.16.09,0Z"/>
    <path class="st1" d="M76,39.88c-.13.11-.34.14-.5.17.1-.14.33-.24.5-.17Z"/>
    <path class="st1" d="M65.8,14.42"/>
    <path class="st1" d="M35.99,40.44c-.08.05-.09-.05-.11-.1.08-.02.1.03.11.1Z"/>
    <path class="st1" d="M13.38,40.73h-.15s-.06-.05-.05-.1c.04,0,.11-.01.14,0,.05.02.1.05.06.1Z"/>
    <path class="st1" d="M60.85,23.74c0-.05-.01-.1,0-.14.01-.05.07-.05.11-.05.03.04.02.1,0,.15-.01.03-.06.05-.1.05Z"/>
    <path class="st1" d="M36.28,40.94c-.08.05-.09-.06-.1-.11.07-.02.14.04.1.11Z"/>
    <path class="st1" d="M36.48,41.31c-.06.05-.08-.02-.1-.05-.03-.06-.03-.11,0-.15.04.01.09,0,.11.05.02.04-.02.1,0,.15Z"/>
    <path class="st1" d="M61.71,22.96c-.04-.08.05-.09.11-.1.04.09-.05.09-.11.1Z"/>
    <path class="st1" d="M62.59,22.45c.03.11-.2.21-.3.2.05-.13.18-.19.3-.2Z"/>
    <path class="st1" d="M65.12,19.68c.01-.05,0-.13.08-.11.04.06,0,.15-.08.11Z"/>
    <path class="st1" d="M44.54,46.36s.07,0,.11,0c-.01.11-.14.12-.11,0Z"/>
    <path class="st1" d="M40.27,47.12s.06-.04.1,0c.01.14-.11.14-.1,0Z"/>
    <path class="st1" d="M16.58,35.3s-.15,0-.11-.08c.06-.05.15,0,.11.08Z"/>
    <path class="st1" d="M16.87,35.39s-.15,0-.11-.08c.06-.05.16,0,.11.08Z"/>
    <path class="st2" d="M41.4,36.63l.43.12c.07.06.13.13.19.2.12.13.24.26.44.35l.03,8.02s2.4,34.95-5.64,41.75c0,0-2.58-.18-6.57-1.57-3.14-1.09-6.12-2.39-8.92-4.26l3.87-.7c1.72-.31,3.36-.49,5.08-.65.74-.07,1.48-.02,2.21-.25,1.06-.33,1.95-.95,2.7-1.75,3.95-4.21,4.73-12.36,4.52-17.87-.15-4.03-.73-7.83-2.65-11.36-1.32-2.45-3.12-4.55-5.42-6.12s-4.61-2.01-7.44-1.77-6.21,1.67-8.03,5.83c-.61.77.74-2.82,2.02-4.31-1.34.1-6.63,2.74-6.98,2.65-1.2.31,1.58-.93,2.17-1.44.29-.25,3.24-1.17,3.35-1.22-.14-.1.09-.27.01-.27-2.11-.05-5-.92-6.76-2.09.04,0-2.89-1.41-2.82-1.42.27-.05,1.42.51,3.19.9,2.16.83,1.36.74,3.94,1.36,2.18.74,9.84-1.63,9.8-1.64-1.63-.69-7.37-2.61-11.13-4.61,0-.08-2.69-1.53-2.57-1.5.69.19,2.1.94,2.92.96.48.22,1.63.74,2.16.91l6.4,1.94,7.33,2.27c1.68.52,3.21,1.23,4.72,2.04.14.04.13-.11,0-.09-.58-1.62-1.41-3.17-2.49-4.56-.83-1.07-1.29-1.63-2.31-2.59.46-.14.41-.49.89-.25.71.35,1.68,1.32,2.32,1.89,1.26,1.12,2.02,2.31,2.96,3.7.99,1.47,1.71,3.05,2.62,4.55.65,1.07,1.68,1.78,2.43,2.86.83-3.34.59-6.73,1.05-9.97Z"/>
  </g>
  <g id="Layer_5">
    <path class="st8" d="M40.9.62c24.08-1.75,44.88,16.44,46.61,40.27,1.75,23.97-16.34,44.88-40.29,46.62S2.43,71.25.63,47.34C-1.18,23.47,16.78,2.37,40.9.62Z"/>
  </g>
</svg>